TITLE ""
FILE "2Q_j_1477-1490.mp3" MP3
  TRACK 01 AUDIO
    TITLE "2Q_j_1477-1490_01"
    INDEX 01 00:00:00
  TRACK 02 AUDIO
    TITLE "2Q_j_1477-1490_02"
    INDEX 01 00:00:10
  TRACK 03 AUDIO
    TITLE "2Q_j_1477-1490_03"
    INDEX 01 00:01:53
  TRACK 04 AUDIO
    TITLE "2Q_j_1477-1490_04"
    INDEX 01 00:02:23
  TRACK 05 AUDIO
    TITLE "2Q_j_1477-1490_05"
    INDEX 01 00:03:73
  TRACK 06 AUDIO
    TITLE "2Q_j_1477-1490_06"
    INDEX 01 00:04:41
  TRACK 07 AUDIO
    TITLE "2Q_j_1477-1490_07"
    INDEX 01 00:09:01
  TRACK 08 AUDIO
    TITLE "2Q_j_1477-1490_08"
    INDEX 01 00:09:52
  TRACK 09 AUDIO
    TITLE "2Q_j_1477-1490_09"
    INDEX 01 00:11:04
  TRACK 10 AUDIO
    TITLE "2Q_j_1477-1490_10"
    INDEX 01 00:11:49
  TRACK 11 AUDIO
    TITLE "2Q_j_1477-1490_11"
    INDEX 01 00:14:24
  TRACK 12 AUDIO
    TITLE "2Q_j_1477-1490_12"
    INDEX 01 00:14:69
  TRACK 13 AUDIO
    TITLE "2Q_j_1477-1490_13"
    INDEX 01 00:18:61
  TRACK 14 AUDIO
    TITLE "2Q_j_1477-1490_14"
    INDEX 01 00:19:31
  TRACK 15 AUDIO
    TITLE "2Q_j_1477-1490_15"
    INDEX 01 00:21:20
  TRACK 16 AUDIO
    TITLE "2Q_j_1477-1490_16"
    INDEX 01 00:21:73
  TRACK 17 AUDIO
    TITLE "2Q_j_1477-1490_17"
    INDEX 01 00:25:57
  TRACK 18 AUDIO
    TITLE "2Q_j_1477-1490_18"
    INDEX 01 00:26:25
  TRACK 19 AUDIO
    TITLE "2Q_j_1477-1490_19"
    INDEX 01 00:30:35
  TRACK 20 AUDIO
    TITLE "2Q_j_1477-1490_20"
    INDEX 01 00:31:05
  TRACK 21 AUDIO
    TITLE "2Q_j_1477-1490_21"
    INDEX 01 00:32:61
  TRACK 22 AUDIO
    TITLE "2Q_j_1477-1490_22"
    INDEX 01 00:33:31
  TRACK 23 AUDIO
    TITLE "2Q_j_1477-1490_23"
    INDEX 01 00:35:22
  TRACK 24 AUDIO
    TITLE "2Q_j_1477-1490_24"
    INDEX 01 00:35:65
  TRACK 25 AUDIO
    TITLE "2Q_j_1477-1490_25"
    INDEX 01 00:38:07
  TRACK 26 AUDIO
    TITLE "2Q_j_1477-1490_26"
    INDEX 01 00:38:56
  TRACK 27 AUDIO
    TITLE "2Q_j_1477-1490_27"
    INDEX 01 00:40:02
  TRACK 28 AUDIO
    TITLE "2Q_j_1477-1490_28"
    INDEX 01 00:40:49
  TRACK 29 AUDIO
    TITLE "2Q_j_1477-1490_29"
    INDEX 01 00:43:73
  TRACK 30 AUDIO
    TITLE "2Q_j_1477-1490_30"
    INDEX 01 00:44:43
  TRACK 31 AUDIO
    TITLE "2Q_j_1477-1490_31"
    INDEX 01 00:48:52
  TRACK 32 AUDIO
    TITLE "2Q_j_1477-1490_32"
    INDEX 01 00:49:28
  TRACK 33 AUDIO
    TITLE "2Q_j_1477-1490_33"
    INDEX 01 00:50:59
  TRACK 34 AUDIO
    TITLE "2Q_j_1477-1490_34"
    INDEX 01 00:51:29
  TRACK 35 AUDIO
    TITLE "2Q_j_1477-1490_35"
    INDEX 01 00:53:50
  TRACK 36 AUDIO
    TITLE "2Q_j_1477-1490_36"
    INDEX 01 00:54:20
  TRACK 37 AUDIO
    TITLE "2Q_j_1477-1490_37"
    INDEX 01 00:59:29
  TRACK 38 AUDIO
    TITLE "2Q_j_1477-1490_38"
    INDEX 01 00:59:74
  TRACK 39 AUDIO
    TITLE "2Q_j_1477-1490_39"
    INDEX 01 01:01:63
  TRACK 40 AUDIO
    TITLE "2Q_j_1477-1490_40"
    INDEX 01 01:02:33
  TRACK 41 AUDIO
    TITLE "2Q_j_1477-1490_41"
    INDEX 01 01:04:48
  TRACK 42 AUDIO
    TITLE "2Q_j_1477-1490_42"
    INDEX 01 01:05:22
  TRACK 43 AUDIO
    TITLE "2Q_j_1477-1490_43"
    INDEX 01 01:10:19
  TRACK 44 AUDIO
    TITLE "2Q_j_1477-1490_44"
    INDEX 01 01:10:64
  TRACK 45 AUDIO
    TITLE "2Q_j_1477-1490_45"
    INDEX 01 01:12:18
  TRACK 46 AUDIO
    TITLE "2Q_j_1477-1490_46"
    INDEX 01 01:12:72
  TRACK 47 AUDIO
    TITLE "2Q_j_1477-1490_47"
    INDEX 01 01:14:71
  TRACK 48 AUDIO
    TITLE "2Q_j_1477-1490_48"
    INDEX 01 01:15:41
  TRACK 49 AUDIO
    TITLE "2Q_j_1477-1490_49"
    INDEX 01 01:19:65
  TRACK 50 AUDIO
    TITLE "2Q_j_1477-1490_50"
    INDEX 01 01:20:35
  TRACK 51 AUDIO
    TITLE "2Q_j_1477-1490_51"
    INDEX 01 01:23:08
  TRACK 52 AUDIO
    TITLE "2Q_j_1477-1490_52"
    INDEX 01 01:23:59
  TRACK 53 AUDIO
    TITLE "2Q_j_1477-1490_53"
    INDEX 01 01:25:69
  TRACK 54 AUDIO
    TITLE "2Q_j_1477-1490_54"
    INDEX 01 01:26:37
  TRACK 55 AUDIO
    TITLE "2Q_j_1477-1490_55"
    INDEX 01 01:31:74
  TRACK 56 AUDIO
    TITLE "2Q_j_1477-1490_56"
    INDEX 01 01:32:48
  TRACK 57 AUDIO
    TITLE "2Q_j_1477-1490_57"
    INDEX 01 01:33:57
  TRACK 58 AUDIO
    TITLE "2Q_j_1477-1490_58"
    INDEX 01 01:34:29
  TRACK 59 AUDIO
    TITLE "2Q_j_1477-1490_59"
    INDEX 01 01:36:01
  TRACK 60 AUDIO
    TITLE "2Q_j_1477-1490_60"
    INDEX 01 01:36:46
  TRACK 61 AUDIO
    TITLE "2Q_j_1477-1490_61"
    INDEX 01 01:40:14
  TRACK 62 AUDIO
    TITLE "2Q_j_1477-1490_62"
    INDEX 01 01:40:61
  TRACK 63 AUDIO
    TITLE "2Q_j_1477-1490_63"
    INDEX 01 01:41:74
  TRACK 64 AUDIO
    TITLE "2Q_j_1477-1490_64"
    INDEX 01 01:42:46
  TRACK 65 AUDIO
    TITLE "2Q_j_1477-1490_65"
    INDEX 01 01:43:73
  TRACK 66 AUDIO
    TITLE "2Q_j_1477-1490_66"
    INDEX 01 01:44:43
  TRACK 67 AUDIO
    TITLE "2Q_j_1477-1490_67"
    INDEX 01 01:49:34
  TRACK 68 AUDIO
    TITLE "2Q_j_1477-1490_68"
    INDEX 01 01:50:08
  TRACK 69 AUDIO
    TITLE "2Q_j_1477-1490_69"
    INDEX 01 01:51:29
  TRACK 70 AUDIO
    TITLE "2Q_j_1477-1490_70"
    INDEX 01 01:52:01
  TRACK 71 AUDIO
    TITLE "2Q_j_1477-1490_71"
    INDEX 01 01:53:03
  TRACK 72 AUDIO
    TITLE "2Q_j_1477-1490_72"
    INDEX 01 01:53:46
  TRACK 73 AUDIO
    TITLE "2Q_j_1477-1490_73"
    INDEX 01 01:57:10
  TRACK 74 AUDIO
    TITLE "2Q_j_1477-1490_74"
    INDEX 01 01:57:58
  TRACK 75 AUDIO
    TITLE "2Q_j_1477-1490_75"
    INDEX 01 01:59:11
  TRACK 76 AUDIO
    TITLE "2Q_j_1477-1490_76"
    INDEX 01 01:59:56
  TRACK 77 AUDIO
    TITLE "2Q_j_1477-1490_77"
    INDEX 01 02:01:18
  TRACK 78 AUDIO
    TITLE "2Q_j_1477-1490_78"
    INDEX 01 02:01:63
  TRACK 79 AUDIO
    TITLE "2Q_j_1477-1490_79"
    INDEX 01 02:04:26
  TRACK 80 AUDIO
    TITLE "2Q_j_1477-1490_80"
    INDEX 01 02:04:73
  TRACK 81 AUDIO
    TITLE "2Q_j_1477-1490_81"
    INDEX 01 02:06:33
  TRACK 82 AUDIO
    TITLE "2Q_j_1477-1490_82"
    INDEX 01 02:07:03
  TRACK 83 AUDIO
    TITLE "2Q_j_1477-1490_83"
    INDEX 01 02:09:31
  TRACK 84 AUDIO
    TITLE "2Q_j_1477-1490_84"
    INDEX 01 02:10:01
  TRACK 85 AUDIO
    TITLE "2Q_j_1477-1490_85"
    INDEX 01 02:13:13
